<svg xmlns="http://www.w3.org/2000/svg" xmlns:xlink="http://www.w3.org/1999/xlink" x="0px" y="0px" width="46" height="64" viewBox="0 0 46 64"><g class="nc-icon-wrapper" fill="#333333"><path d="M23 0C10.318 0 0 10.317 0 23v14h5v13h16v12h-7v2h9V50h3v-2H7V35H2V23C2 11.421 11.42 2 23 2s21 9.421 21 21v41h2V23C46 10.317 35.682 0 23 0z"></path><path d="M28.862 9.507l-1.724-1.014L23.899 14H8v2h14.722l-1.176 2H8v2h12.369l-3.231 5.493 1.724 1.014L22.689 20H38v-2H23.866l1.176-2H38v-2H26.219z"></path><path d="M28 22h2v2h-2z"></path><path d="M32 22h2v2h-2z"></path><path d="M36 22h2v2h-2z"></path></g></svg>