<svg xmlns="http://www.w3.org/2000/svg" xmlns:xlink="http://www.w3.org/1999/xlink" x="0px" y="0px" width="64" height="64" viewBox="0 0 64 64"><g class="nc-icon-wrapper" fill="#333333"><path d="M50 20c-2.514 0-4.97.795-7 2.253A12.022 12.022 0 0 0 36 20c-1.406 0-2.75.256-4.004.702-3.63-1.278-7.855-.705-10.996 1.551A12.022 12.022 0 0 0 14 20C7.383 20 2 25.383 2 32c0 6.141 4.531 11.208 10.591 11.913A.996.996 0 0 0 13 44c3.86 0 7 3.141 7 7a1 1 0 1 0 2 0c0-3.859 3.14-7 7-7a.92.92 0 0 0 .383-.084c.92-.105 1.8-.322 2.64-.617.833.293 1.691.51 2.568.613A.981.981 0 0 0 35 44c3.86 0 7 3.141 7 7a1 1 0 1 0 2 0c0-3.859 3.14-7 7-7a.92.92 0 0 0 .383-.084C57.456 43.223 62 38.149 62 32c0-6.617-5.383-12-12-12zM28.915 41.953a.886.886 0 0 0-.23.053c-3.345.115-6.232 2.065-7.685 4.873-1.45-2.804-4.333-4.753-7.673-4.873a1.024 1.024 0 0 0-.242-.053A9.941 9.941 0 0 1 4 32c0-5.514 4.486-10 10-10 2.319 0 4.579.812 6.363 2.285a.995.995 0 0 0 1.273 0c2.106-1.739 4.918-2.501 7.599-2.188a12.091 12.091 0 0 0-2.214 1.968 7.878 7.878 0 0 0-4.111 1.762L21 27.406l-1.911-1.578A7.897 7.897 0 0 0 14 24c-4.411 0-8 3.589-8 8 0 4.163 3.124 7.586 7.175 7.949l3.268.603a10.94 10.94 0 0 1 3.89 2.257.999.999 0 0 0 1.334 0 10.963 10.963 0 0 1 3.89-2.258l3.177-.589A7.953 7.953 0 0 0 36 32a8 8 0 0 0-2.265-5.553A5.976 5.976 0 0 1 35.989 26 10.01 10.01 0 0 1 38 32a9.941 9.941 0 0 1-9.085 9.953zm-3.653-15.278A11.911 11.911 0 0 0 24 32c0 2.295.672 4.537 1.898 6.455l-.769.142a1.124 1.124 0 0 0-.127.032A12.912 12.912 0 0 0 21 40.759a12.912 12.912 0 0 0-4.002-2.13.944.944 0 0 0-.127-.032l-3.425-.627A5.962 5.962 0 0 1 8 32c0-3.309 2.691-6 6-6a5.92 5.92 0 0 1 3.815 1.37l2.548 2.104a.995.995 0 0 0 1.273 0l2.548-2.104c.337-.278.701-.5 1.078-.695zm6.743.861A6.012 6.012 0 0 1 34 32c0 1.78-.778 3.361-2.025 4.462a6 6 0 0 1 .03-8.926zm6.739-.858c.375.195.738.416 1.072.692l2.548 2.104a.995.995 0 0 0 1.273 0l2.548-2.104A5.92 5.92 0 0 1 50 26c3.309 0 6 2.691 6 6 0 3.121-2.341 5.688-5.537 5.982l-3.334.614a1.124 1.124 0 0 0-.127.032A12.912 12.912 0 0 0 43 40.758a12.912 12.912 0 0 0-4.002-2.13.944.944 0 0 0-.127-.032l-.744-.137A11.983 11.983 0 0 0 40 32c0-1.857-.443-3.677-1.256-5.322zm12.171 15.275a.886.886 0 0 0-.23.053c-3.345.115-6.232 2.065-7.685 4.873-1.45-2.804-4.333-4.753-7.673-4.873a1.024 1.024 0 0 0-.242-.053c-.1-.009-.197-.036-.297-.048a11.843 11.843 0 0 0 1.953-1.667l1.702.314a10.922 10.922 0 0 1 3.89 2.257.999.999 0 0 0 1.334 0 10.963 10.963 0 0 1 3.89-2.258l3.177-.589A7.953 7.953 0 0 0 58 32c0-4.411-3.589-8-8-8a7.902 7.902 0 0 0-5.089 1.827L43 27.406l-1.911-1.578A7.897 7.897 0 0 0 36 24c-4.411 0-8 3.589-8 8 0 2.092.818 4.064 2.226 5.535a6.264 6.264 0 0 1-1.763.447l-.406.075A9.999 9.999 0 0 1 26 32c0-5.514 4.486-10 10-10 2.319 0 4.579.812 6.363 2.285a.995.995 0 0 0 1.273 0A10.021 10.021 0 0 1 50 22c5.514 0 10 4.486 10 10a9.941 9.941 0 0 1-9.085 9.953z"></path><path d="M44 15a1 1 0 1 0 2 0c0-2.206 1.794-4 4-4a1 1 0 1 0 0-2c-2.206 0-4-1.794-4-4a1 1 0 1 0-2 0c0 2.206-1.794 4-4 4a1 1 0 1 0 0 2c2.206 0 4 1.794 4 4zm1-6.687A6.062 6.062 0 0 0 46.687 10 6.062 6.062 0 0 0 45 11.687 6.062 6.062 0 0 0 43.313 10 6.049 6.049 0 0 0 45 8.313z"></path><path d="M7 61a1 1 0 1 0 2 0c0-2.206 1.794-4 4-4a1 1 0 1 0 0-2c-2.206 0-4-1.794-4-4a1 1 0 1 0-2 0c0 2.206-1.794 4-4 4a1 1 0 1 0 0 2c2.206 0 4 1.794 4 4zm1-6.687A6.049 6.049 0 0 0 9.687 56 6.049 6.049 0 0 0 8 57.687 6.049 6.049 0 0 0 6.313 56 6.049 6.049 0 0 0 8 54.313z"></path><path d="M52 51h2v2h-2z"></path><path d="M19 14h2v2h-2z"></path><path d="M10 6h2v2h-2z"></path><path d="M29 56h2v2h-2z"></path><path d="M34 5h2v2h-2z"></path><path d="M57 5h2v2h-2z"></path></g></svg>