<svg xmlns="http://www.w3.org/2000/svg" xmlns:xlink="http://www.w3.org/1999/xlink" x="0px" y="0px" width="64" height="64" viewBox="0 0 64 64"><g class="nc-icon-wrapper" fill="#333333"><path d="M63.741 32.329l-29-32A.999.999 0 0 0 34 0h-4a.999.999 0 0 0-.741.329l-29 32A1 1 0 0 0 1 34h3v29a1 1 0 0 0 1 1h54a1 1 0 0 0 1-1V34h3a.999.999 0 0 0 .741-1.671zM20 62v-2h-2v2h-2v-2h-2v-2h2v-2h-2v-2h2v-2h-2v-2h2v-2h-2v-2h2v-2h2v2h2v-2h2v2h-2v2h2v2h-2v2h2v2h-2v2h2v2h-2v2h2v2h-2zm38 0H24V43a1 1 0 0 0-1-1H13a1 1 0 0 0-1 1v19H6V34h52v28zM29.586 32H19V21.414L29.586 32zm4.828 0L45 21.414V32H34.414zM47 22.229L55.761 32H47v-9.771zm-14 8.357V18.414l5.578-5.578 5.754 6.418L33 30.586zm0-15V6.613l4.242 4.731L33 15.586zm-2 0l-4.242-4.242L31 6.613v8.973zm-5.578-2.75L31 18.414v12.172L19.668 19.253l5.754-6.417zM17 32H8.24L17 22.229V32zm42 0h-.554L32.745 3.333c-.38-.423-1.109-.423-1.489 0L5.554 32H3.256L30.444 2h3.113l27.188 30H59z"></path><path d="M32 55a1 1 0 0 0 1 1h8a1 1 0 0 0 1-1V43a1 1 0 0 0-1-1h-8a1 1 0 0 0-1 1v12zm2-5h2v-2h-2v-2h2v-2h2v2h2v2h-2v2h2v2h-2v2h-2v-2h-2v-2z"></path><path d="M45 56h8a1 1 0 0 0 1-1V43a1 1 0 0 0-1-1h-8a1 1 0 0 0-1 1v12a1 1 0 0 0 1 1zm1-6h2v-2h-2v-2h2v-2h2v2h2v2h-2v2h2v2h-2v2h-2v-2h-2v-2z"></path><path d="M16 46h2v2h-2z"></path><path d="M18 48h2v2h-2z"></path><path d="M16 50h2v2h-2z"></path><path d="M18 52h2v2h-2z"></path><path d="M16 54h2v2h-2z"></path><path d="M36 46h2v2h-2z"></path><path d="M36 50h2v2h-2z"></path><path d="M48 46h2v2h-2z"></path><path d="M48 50h2v2h-2z"></path><path d="M18 56h2v2h-2z"></path><path d="M16 58h2v2h-2z"></path></g></svg>