<svg xmlns="http://www.w3.org/2000/svg" xmlns:xlink="http://www.w3.org/1999/xlink" x="0px" y="0px" width="64" height="64" viewBox="0 0 64 64"><g class="nc-icon-wrapper" fill="#333333"><path d="M3 42h13.051c-.018.333-.051.662-.051 1 0 10.477 8.523 19 19 19h26a1 1 0 0 0 .707-1.707l-9.427-9.427A18.742 18.742 0 0 0 54 43c0-3.255-.825-6.319-2.273-9H61a1 1 0 0 0 .707-1.707l-6.66-6.661A15.944 15.944 0 0 0 57 18c0-8.822-7.178-16-16-16-7.589 0-14.096 5.379-15.634 12.699A14.076 14.076 0 0 0 21 14c-7.72 0-14 6.28-14 14 0 2.131.492 4.243 1.43 6.155l-6.137 6.138A1 1 0 0 0 3 42zm47.365 9.779L58.586 60H35c-9.374 0-17-7.626-17-17 0-.671.049-1.33.126-1.981a16.92 16.92 0 0 1 .416-2.2c.062-.244.116-.491.188-.73.069-.229.154-.45.232-.675.098-.281.195-.563.307-.837.081-.198.172-.391.261-.585.133-.292.269-.583.418-.866.091-.173.187-.342.283-.512a16.928 16.928 0 0 1 1.462-2.161c.105-.132.208-.266.317-.395.236-.28.484-.548.738-.812.109-.113.213-.231.325-.341.276-.272.566-.529.86-.782.103-.089.201-.185.306-.271.388-.318.791-.62 1.207-.903.233-.158.478-.299.719-.445.188-.115.372-.235.564-.343.3-.167.611-.317.922-.467.14-.067.278-.139.42-.202.325-.145.658-.275.994-.399l.009-.002h.002a14.526 14.526 0 0 1 .657-.223l.068-.022.007-.004c.254-.081.508-.163.767-.233l.005-.001a9.497 9.497 0 0 1 .341-.083l.173-.041.006-.003c.351-.082.702-.162 1.061-.223l.072-.011.014-.001.042-.006a.862.862 0 0 0 .056-.008l.011-.002c.453-.071.91-.129 1.374-.163l.002-.001c.42-.033.84-.066 1.268-.066.523 0 1.039.032 1.55.079.106.01.212.018.318.03.489.054.971.127 1.446.221.099.02.198.044.296.065.446.097.886.209 1.319.34.053.016.108.029.161.046a17.107 17.107 0 0 1 1.636.613 16.95 16.95 0 0 1 6.351 4.76l.079.097A16.914 16.914 0 0 1 52 43c0 2.656-.612 5.221-1.821 7.623a1 1 0 0 0 .186 1.156zM41 4c7.72 0 14 6.28 14 14 0 2.556-.711 5.072-2.057 7.276-.24.394-.18.901.146 1.228L58.586 32h-8.097a19.069 19.069 0 0 0-3.404-3.65l-.015-.013a19.028 19.028 0 0 0-2.956-2.002l-.112-.062a19.052 19.052 0 0 0-1.537-.742l-.207-.085c-.516-.214-1.04-.41-1.575-.578l-.051-.017a18.76 18.76 0 0 0-1.612-.415c-.113-.025-.226-.05-.34-.073a18.886 18.886 0 0 0-1.615-.247c-.106-.012-.214-.019-.321-.029A19.412 19.412 0 0 0 35 24c-.197 0-.394.005-.588.014-.014-.047-.035-.092-.049-.139a13.904 13.904 0 0 0-7.118-8.407C28.447 8.881 34.236 4 41 4zM10.364 35.049a1 1 0 0 0 .165-1.196C9.529 32.068 9 30.043 9 28c0-6.617 5.383-12 12-12 1.647 0 3.224.33 4.663.933.028.015.05.038.079.051a12.06 12.06 0 0 1 6.493 6.845c.022.059.046.118.067.178.022.063.036.13.057.194-.052.007-.102.02-.154.028a17.01 17.01 0 0 0-.222.034h-.007l-.149.022c-.003 0-.005.002-.008.003a18.84 18.84 0 0 0-3.637.998c-.095.037-.193.067-.288.106-.315.127-.62.27-.926.414-.215.1-.43.201-.641.309a18.725 18.725 0 0 0-1.531.884c-.204.131-.41.259-.609.398-.343.238-.675.49-1.001.749-.102.082-.21.156-.311.24a18.82 18.82 0 0 0-1.263 1.149c-.065.064-.124.133-.188.199-.335.342-.656.695-.965 1.061-.097.115-.189.234-.283.351-.266.332-.521.672-.764 1.022-.093.133-.185.265-.274.4-.239.363-.463.735-.678 1.114-.07.124-.145.245-.213.37a18.923 18.923 0 0 0-.742 1.538c-.032.075-.056.154-.086.229-.18.44-.345.887-.492 1.343-.076.235-.138.475-.205.714-.084.302-.166.605-.235.914-.064.28-.119.562-.17.846-.022.122-.054.241-.073.364H5.414l4.95-4.951z"></path><path d="M26 34h18v2H26z"></path><path d="M26 38h18v2H26z"></path><path d="M26 42h18v2H26z"></path><path d="M35 11h12v2H35z"></path><path d="M35 15h12v2H35z"></path><path d="M35 19h12v2H35z"></path><path d="M26 46h18v2H26z"></path><path d="M26 50h18v2H26z"></path><path d="M15 21h2v2h-2z"></path><path d="M19 21h2v2h-2z"></path><path d="M15 25h2v2h-2z"></path><path d="M19 25h2v2h-2z"></path><path d="M23 21h2v2h-2z"></path></g></svg>