<svg xmlns="http://www.w3.org/2000/svg" xmlns:xlink="http://www.w3.org/1999/xlink" x="0px" y="0px" width="64" height="64" viewBox="0 0 64 64"><g class="nc-icon-wrapper" fill="#333333"><path d="M44 42a2.98 2.98 0 0 0-.78-2c.48-.532.78-1.229.78-2s-.301-1.468-.78-2c.48-.532.78-1.229.78-2a2.99 2.99 0 0 0-.909-2.145C46.813 28.64 49 23.945 49 19c0-9.374-7.626-17-17-17S15 9.626 15 19c0 4.945 2.187 9.64 5.909 12.855A2.99 2.99 0 0 0 20 34c0 .771.301 1.468.78 2-.48.532-.78 1.229-.78 2s.301 1.468.78 2a2.976 2.976 0 0 0-.78 2c0 1.302.839 2.402 2 2.816V52c0 .269.11.52.295.705l-.002.002 9 9a.997.997 0 0 0 1.414 0l9-9-.002-.002A.997.997 0 0 0 42 52v-7.184A2.996 2.996 0 0 0 44 42zm-22-4c0-.551.449-1 1-1h18c.551 0 1 .449 1 1s-.449 1-1 1H23c-.551 0-1-.449-1-1zm0-4c0-.551.449-1 1-1h17.996l.012.002A1 1 0 0 1 41 35H23c-.551 0-1-.449-1-1zm7.64-10.768l-3.862-3.219A4.928 4.928 0 0 1 24 16.218C24 14.503 25.402 13 27 13c.311 0 .616.05.908.147-.02.028-.034.06-.053.088-.105.155-.2.314-.286.479-.019.037-.042.072-.061.11a4.94 4.94 0 0 0-.253.622c-.018.055-.032.112-.049.167a5.16 5.16 0 0 0-.121.509c-.012.064-.024.128-.033.193-.03.226-.052.454-.052.685a4.97 4.97 0 0 0 1.872 3.877.998.998 0 0 0 1.256 0A4.97 4.97 0 0 0 32 16c0-.231-.022-.459-.053-.685-.009-.065-.021-.128-.033-.193a4.649 4.649 0 0 0-.121-.509c-.016-.056-.03-.112-.048-.167a4.94 4.94 0 0 0-.253-.622c-.018-.036-.04-.07-.059-.107a4.862 4.862 0 0 0-.291-.485c-.018-.027-.031-.057-.05-.084a2.912 2.912 0 0 1 1.818 0c-.019.027-.032.057-.05.084a5.185 5.185 0 0 0-.291.485c-.019.036-.041.07-.059.107-.099.201-.183.41-.253.622-.018.055-.032.111-.048.167a5.16 5.16 0 0 0-.121.509c-.012.064-.024.128-.033.193A4.734 4.734 0 0 0 32 16a4.97 4.97 0 0 0 1.872 3.877.998.998 0 0 0 1.256 0A4.97 4.97 0 0 0 37 16c0-.231-.022-.459-.053-.685-.009-.065-.021-.128-.033-.193a4.649 4.649 0 0 0-.121-.509c-.016-.056-.03-.112-.049-.167a4.94 4.94 0 0 0-.253-.622c-.018-.038-.041-.073-.061-.11a5.045 5.045 0 0 0-.286-.479c-.019-.029-.033-.06-.053-.088A2.88 2.88 0 0 1 37 13c1.598 0 3 1.503 3 3.218 0 1.47-.648 2.854-1.778 3.795l-3.862 3.219A1 1 0 0 0 34 24v7h-4v-7a1 1 0 0 0-.36-.768zm.068-8.503a2.903 2.903 0 0 1 .225.684c.039.193.067.388.067.587 0 .199-.028.394-.067.586-.01.046-.02.093-.032.138a2.953 2.953 0 0 1-.193.546c-.006.013-.015.026-.022.039-.052.103-.122.197-.186.294-.064-.097-.134-.191-.186-.294-.007-.013-.016-.026-.022-.039a2.953 2.953 0 0 1-.193-.546c-.012-.046-.022-.092-.032-.138A2.94 2.94 0 0 1 29 16c0-.199.028-.394.067-.586.01-.046.02-.093.032-.138.048-.187.109-.371.193-.546l.022-.039c.052-.103.122-.197.186-.294.064.097.134.191.186.294.006.013.015.025.022.038zm5 0a2.903 2.903 0 0 1 .225.684c.039.193.067.388.067.587 0 .199-.028.394-.067.586-.01.046-.02.093-.032.138a2.953 2.953 0 0 1-.193.546c-.006.013-.015.026-.022.039-.052.103-.122.197-.186.294-.064-.097-.134-.191-.186-.294-.007-.013-.016-.026-.022-.039a2.953 2.953 0 0 1-.193-.546c-.012-.046-.022-.092-.032-.138A2.94 2.94 0 0 1 34 16c0-.199.028-.394.067-.586.01-.046.02-.093.032-.138.048-.187.109-.371.193-.546l.022-.039c.052-.103.122-.197.186-.294.064.097.134.191.186.294.006.013.015.025.022.038zM17 19c0-8.271 6.729-15 15-15s15 6.729 15 15c0 4.71-2.245 9.168-6.022 12H36v-6.532l3.502-2.919A6.918 6.918 0 0 0 42 16.218C42 13.39 39.71 11 37 11a4.88 4.88 0 0 0-2.503.697 4.993 4.993 0 0 0-4.993 0A4.886 4.886 0 0 0 27 11c-2.71 0-5 2.39-5 5.218 0 2.065.91 4.009 2.498 5.332L28 24.468V31h-4.978C19.245 28.168 17 23.71 17 19zm7.57 33.155l1.43-.953 2.445 1.63a1 1 0 0 0 1.109 0L32 51.202l2.445 1.63a1 1 0 0 0 1.109 0L38 51.202l1.43.954L35.586 56h-7.172l-3.844-3.845zm13.985-2.987a1 1 0 0 0-1.109 0L35 50.798l-2.445-1.63a1 1 0 0 0-1.109 0L29 50.798l-2.445-1.63a1 1 0 0 0-1.109 0L24 50.131V45h16v5.131l-1.445-.963zM32 59.586L30.414 58h3.172L32 59.586zM41 43H23c-.551 0-1-.449-1-1s.449-1 1-1h18c.551 0 1 .449 1 1s-.449 1-1 1z"></path><path d="M47.293 6.293l4-4 1.414 1.414-4 4z"></path><path d="M47.293 31.707l1.414-1.414 4 4-1.414 1.414z"></path><path d="M52 18h6v2h-6z"></path><path d="M11.293 3.707l1.414-1.414 4 4-1.414 1.414z"></path><path d="M11.293 34.293l4-4 1.414 1.414-4 4z"></path><path d="M6 18h6v2H6z"></path><path d="M44 50h2v2h-2z"></path><path d="M48 50h2v2h-2z"></path><path d="M52 50h2v2h-2z"></path><path d="M10 50h2v2h-2z"></path><path d="M14 50h2v2h-2z"></path><path d="M18 50h2v2h-2z"></path></g></svg>