<svg xmlns="http://www.w3.org/2000/svg" xmlns:xlink="http://www.w3.org/1999/xlink" x="0px" y="0px" width="64.091" height="64" viewBox="0 0 64.091 64"><g class="nc-icon-wrapper" fill="#333333"><path d="M45.091 9c-3.441 0-6.807 1.337-9.735 3.865a5.075 5.075 0 0 1-2.31 1.13V0h-2v13.995a5.075 5.075 0 0 1-2.31-1.13C25.807 10.337 22.441 9 19 9 8.523 9 0 21.337 0 36.5S8.523 64 19 64c3.441 0 6.807-1.337 9.735-3.865a5.037 5.037 0 0 1 6.62 0C38.284 62.663 41.65 64 45.091 64c10.477 0 19-12.337 19-27.5S55.567 9 45.091 9zm0 53c-2.954 0-5.869-1.168-8.429-3.379-1.337-1.154-2.977-1.731-4.616-1.731s-3.28.577-4.618 1.731C24.869 60.832 21.954 62 19 62 9.626 62 2 50.561 2 36.5S9.626 11 19 11c2.954 0 5.869 1.168 8.429 3.379a7.02 7.02 0 0 0 9.234 0C39.222 12.168 42.137 11 45.091 11c9.374 0 17 11.439 17 25.5s-7.626 25.5-17 25.5z"></path><path d="M28.091 31c-1.71 0-3 2.149-3 5s1.29 5 3 5 3-2.149 3-5-1.29-5-3-5zm0 8c-.249 0-1-1.064-1-3s.751-3 1-3 1 1.064 1 3-.751 3-1 3z"></path><path d="M36.091 31c-1.71 0-3 2.149-3 5s1.29 5 3 5 3-2.149 3-5-1.29-5-3-5zm0 8c-.249 0-1-1.064-1-3s.751-3 1-3 1 1.064 1 3-.751 3-1 3z"></path></g></svg>